<?xml version="1.0" standalone="no"?>
<svg version="1.1" id="Layer_1" xmlns="http://www.w3.org/2000/svg" xmlns:xlink="http://www.w3.org/1999/xlink" x="0px" y="0px" viewBox="0 0 595.276 595.276" enable-background="new 0 0 595.276 595.276" xml:space="preserve">
<path id="color_x5F_4" fill="#00CEC9" d="M202.895,205.493l16.174-4.265v19.376l-6.069-1.6l-0.935-0.247l-2.106-0.555l-3.477-0.917
	l-0.806-0.213l-2.781-0.733L202.895,205.493L202.895,205.493z M256.055,158.896h35.759v49.694h-35.759V158.896z M258.63,165.988
	h29.988v-2.181H258.63V165.988z M258.63,171.168h29.988v-2.181H258.63V171.168z M258.63,176.348h29.988v-2.181H258.63V176.348z
	 M258.63,181.527h29.988v-2.181H258.63V181.527z M258.63,204.973h29.988V185.89H258.63V204.973z M401.764,154.596
	c1.361,0,2.469,1.107,2.469,2.469v43.756c0,1.361-1.107,2.469-2.469,2.469h-19.086c-1.361,0-2.469-1.107-2.469-2.469v-43.756
	c0-1.361,1.107-2.469,2.469-2.469H401.764z M381.641,192.04h10.665v-8.509h-10.665V192.04z M402.972,195.69h-21.331v1.2h21.331
	V195.69z M402.972,192.917h-21.331v1.2h21.331V192.917z M402.972,183.53h-9.575v8.509h9.575V183.53z M402.972,180.976h-21.331v1.2
	h21.331V180.976z M402.972,178.693h-21.331v1.2h21.331V178.693z M402.972,176.41h-21.331v1.2h21.331V176.41z M402.972,174.126
	h-21.331v1.2h21.331V174.126z M381.641,158.453v13.574h21.331v-13.574H381.641z M332.162,181.956v19.109l16.549-9.555
	L332.162,181.956z M352.404,232.234h-49.65l24.07,15.65L352.404,232.234z M256.055,158.896h35.759v49.694h-35.759V158.896z
	 M258.63,165.988h29.988v-2.181H258.63V165.988z M258.63,171.168h29.988v-2.181H258.63V171.168z M258.63,176.348h29.988v-2.181
	H258.63V176.348z M258.63,181.527h29.988v-2.181H258.63V181.527z M258.63,204.973h29.988V185.89H258.63V204.973z M401.764,154.596
	c1.361,0,2.469,1.107,2.469,2.469v43.756c0,1.361-1.107,2.469-2.469,2.469h-19.086c-1.361,0-2.469-1.107-2.469-2.469v-43.756
	c0-1.361,1.107-2.469,2.469-2.469H401.764z M381.641,192.04h10.665v-8.509h-10.665V192.04z M402.972,195.69h-21.331v1.2h21.331
	V195.69z M402.972,192.917h-21.331v1.2h21.331V192.917z M402.972,183.53h-9.575v8.509h9.575V183.53z M402.972,180.976h-21.331v1.2
	h21.331V180.976z M402.972,178.693h-21.331v1.2h21.331V178.693z M402.972,176.41h-21.331v1.2h21.331V176.41z M402.972,174.126
	h-21.331v1.2h21.331V174.126z M381.641,158.453v13.574h21.331v-13.574H381.641z M332.162,181.956v19.109l16.549-9.555
	L332.162,181.956z M352.404,232.234h-49.65l24.07,15.65L352.404,232.234z"></path>
<path id="color_x5F_3" fill="#E84393" d="M541.593,502.302c0,1.77-1.435,3.204-3.204,3.204H83.07c-1.77,0-3.204-1.435-3.204-3.204
	s1.435-3.204,3.204-3.204h53.397c0.129,0.043,0.265,0.074,0.41,0.074h39.267c0.12,0,0.228-0.03,0.328-0.074h35.958l12.279,2.018
	c0.612,0.101,1.116-0.478,0.932-1.071l-0.294-0.947h14.604h5.359h3.149h1.838h2.88h0.841h2.839h6.053h2.748h4.797h2.834h3.744h2.989
	h4.84h2.95h7.389h49.383h3.555h2.094h1.246h1.916h0.568h1.888h4.047h1.827h3.216h1.885h2.513h1.989h3.21h1.962h4.959h156.93
	C540.158,499.098,541.593,500.532,541.593,502.302z M219.996,492.869l-5.656-2.13c-2.932-1.105-6.323-2.651-7.735-5.448l-2.642-5.34
	l-0.822,0.46l-3.073,1.719c-1.058,0.592-2.275,0.841-3.481,0.711l-5.131-0.552l-1.159-0.125c0,0-4.017,5.966-5.374,10.944
	c-0.205,0.751,0.272,1.515,1.039,1.641l26.468,4.349l12.279,2.018c0.612,0.101,1.116-0.478,0.932-1.071l-0.294-0.947l-0.253-0.817
	C224.321,495.787,222.439,493.79,219.996,492.869z M176.144,499.171c0.12,0,0.228-0.03,0.328-0.074
	c0.419-0.181,0.642-0.687,0.418-1.134l-0.826-1.651c-1.168-2.336-3.348-4.001-5.909-4.513l-5.926-1.185
	c-3.073-0.615-6.669-1.591-8.516-4.122l-3.473-4.841l-0.736,0.587l-2.754,2.195c-0.948,0.756-2.109,1.198-3.32,1.266l-5.153,0.287
	l-1.164,0.065c0,0-2.997,6.539-3.528,11.671c-0.065,0.63,0.319,1.188,0.882,1.377c0.129,0.043,0.265,0.074,0.41,0.074h39.267
	V499.171z M267.066,188.31l5.11,14.974h-2.066l-1.6-4.71h-5.31l-1.556,4.71h-1.999l5.088-14.974H267.066z M268.111,197.063
	l-1.467-4.31c-0.333-0.978-0.556-1.866-0.777-2.733h-0.045c-0.222,0.889-0.467,1.8-0.755,2.711l-1.467,4.332H268.111z
	 M284.548,190.065c1.334,1.222,2.111,2.955,2.111,5.376c0,2.444-0.756,4.443-2.155,5.821c-1.399,1.399-3.71,2.155-6.62,2.155
	c-1.378,0-2.533-0.067-3.511-0.178v-14.73c1.178-0.178,2.577-0.311,4.11-0.311C281.261,188.199,283.238,188.843,284.548,190.065z
	 M284.638,195.508c0.021-3.533-1.978-5.776-6.065-5.776c-1,0-1.755,0.089-2.267,0.2v11.819c0.489,0.089,1.2,0.111,1.955,0.111
	C282.394,201.862,284.638,199.552,284.638,195.508z M390.124,153.596h1.135h10.505c1.913,0,3.469,1.556,3.469,3.469v6.692v0.787
	v36.278c0,1.913-1.556,3.469-3.469,3.469h-19.086c-1.913,0-3.469-1.556-3.469-3.469v-43.756c0-1.913,1.556-3.469,3.469-3.469h7.446
	V153.596z M401.764,154.596h-19.086c-1.361,0-2.469,1.107-2.469,2.469v43.756c0,1.361,1.107,2.469,2.469,2.469h19.086
	c1.361,0,2.469-1.107,2.469-2.469v-43.756C404.233,155.703,403.125,154.596,401.764,154.596z M387.926,160.458l3.736,10.948h-1.511
	l-1.17-3.444H385.1l-1.137,3.444H382.5l3.72-10.948H387.926z M388.69,166.858l-1.072-3.151c-0.243-0.715-0.406-1.365-0.568-1.998
	h-0.033c-0.162,0.65-0.341,1.316-0.552,1.982l-1.072,3.167H388.69z M400.708,161.742c0.975,0.893,1.544,2.16,1.544,3.931
	c0,1.787-0.553,3.249-1.576,4.256c-1.023,1.023-2.713,1.576-4.84,1.576c-1.007,0-1.852-0.049-2.567-0.13v-10.77
	c0.861-0.13,1.884-0.227,3.005-0.227C398.305,160.377,399.75,160.848,400.708,161.742z M400.774,165.721
	c0.016-2.583-1.446-4.223-4.435-4.223c-0.731,0-1.283,0.065-1.657,0.146v8.642c0.358,0.065,0.878,0.081,1.429,0.081
	C399.133,170.367,400.774,168.678,400.774,165.721z M321.925,250.538l4.499,13.182h-1.819l-1.408-4.146h-4.674l-1.37,4.146h-1.76
	l4.479-13.182H321.925z M322.845,258.243l-1.291-3.794c-0.293-0.861-0.489-1.643-0.684-2.406h-0.04
	c-0.195,0.782-0.411,1.584-0.665,2.387l-1.291,3.814L322.845,258.243L322.845,258.243z M331.449,263.837
	c-1.213,0-2.23-0.059-3.091-0.156v-12.967c1.037-0.156,2.269-0.273,3.618-0.273c2.445,0,4.185,0.567,5.339,1.643
	c1.174,1.076,1.859,2.601,1.859,4.733c0,2.152-0.665,3.912-1.897,5.125C336.045,263.172,334.011,263.837,331.449,263.837z
	 M330.06,262.37c0.431,0.078,1.057,0.098,1.721,0.098c3.638,0,5.614-2.034,5.614-5.594c0.019-3.11-1.741-5.085-5.34-5.085
	c-0.88,0-1.545,0.078-1.995,0.176L330.06,262.37L330.06,262.37z M140.413,208.285L140.413,208.285
	c-1.07-0.555-1.806-1.672-1.806-2.955v-2.322c0-1.831,1.498-3.328,3.328-3.328s3.328,1.498,3.328,3.328v1.316h1.854l2.159-10.932
	l2.724-1.401l0.918-5.237h14.656v7.942c0.214-0.24,0.435-0.477,0.647-0.719c5.9-1.968,10.358-6.873,11.01-12.114
	c0.281-2.265-0.238-4.494-1.334-6.507c-0.098-0.179-0.191-0.36-0.297-0.536c-0.41-0.674-0.881-1.322-1.417-1.932
	c-1.825-2.083-5.145-2.648-8.151-1.769c-0.182,0.053-0.366,0.099-0.55,0.138c-1.476,0.308-3.003,0.222-4.504,0.157
	c-6.152-0.267-12.603-0.085-18.205,2.288s-8.57,7.128-7.703,12.22c-2.234,1.032-3.564,3.141-3.917,5.233
	c-0.353,2.092,0.138,4.188,0.754,6.204c1.528,5.001,3.859,9.8,6.886,14.251l0.011-0.125
	C140.557,210.456,140.413,209.388,140.413,208.285z M354.474,266.234h-54.38v-34.54v-0.46h1.12h52.83h0.43v0.91V266.234z
	 M302.754,232.234l24.07,15.65l25.58-15.65H302.754z M353.474,232.754l-26.67,16.31l-25.71-16.71v32.88h52.38V232.754z"></path>
<path id="color_x5F_5" fill="#FFD2BB" d="M139.734,224.164l0.04-0.48l1.017-12.075l0.011-0.125
	c-0.245-1.028-0.389-2.096-0.389-3.199l0,0c-1.07-0.555-1.806-1.672-1.806-2.955v-2.322c0-1.831,1.498-3.328,3.328-3.328
	s3.328,1.498,3.328,3.328v1.316h1.854l2.159-10.932l2.724-1.401l0.918-5.237h14.656v7.942v17.427c0,5.475-4.438,9.913-9.913,9.913
	h-2.292l-0.409,4.854l-0.608,7.213l-1.933-0.163C148.707,229.971,144.573,226.454,139.734,224.164z M170.892,263.121
	c2.279-6,4.301-12.11,6.274-18.441l7.149,6.454c2.358-8.873,5.403-17.566,9.114-25.964c0.019,0,0.034,0.001,0.053,0.001
	c0.02-0.194,0.092-0.382,0.235-0.531c1.849-1.909,3.998-3.479,6.34-4.684l-0.401,1.819c1.722-0.427,3.358-1.184,4.77-2.263
	c-0.062,1.163-0.791,2.208-1.709,2.925c-0.918,0.716-1.901,1.137-2.984,1.566c0.095,1.087-0.177,2.203-0.761,3.125
	c-0.105,0.166-0.229,0.32-0.364,0.463c0.193,0.501,0.671,0.873,1.259,0.873h2.205c0.636,0,1.187-0.442,1.324-1.064l1.645-7.453
	c2.174-0.975,4.746-1.333,7.024-1.191l0.935,0.247c0.156,0.248,0.084,0.641-0.227,0.7c-1.965,0.374-3.924,0.821-5.744,1.604
	c-0.226,0.097-0.447,0.204-0.664,0.316c0.002,0.004,0.004,0.007,0.007,0.011c1.011-0.365,2.084-0.599,3.157-0.735
	c0.031-0.004,0.061-0.012,0.091-0.015c1.21-0.147,2.417-0.164,3.533-0.047c0.501,0.053,0.532,0.817,0.089,0.902
	c-1.548,0.295-3.091,0.642-4.566,1.156c-0.397,0.138-0.792,0.282-1.177,0.448c-0.066,0.028-0.13,0.06-0.195,0.091
	c-0.032,0.016-0.065,0.031-0.098,0.046c0.033,0.105,0.066,0.211,0.097,0.319c0.036-0.011,0.074-0.016,0.11-0.027
	c0.211-0.061,0.427-0.103,0.641-0.155c1.783-0.432,3.654-0.558,5.325-0.383c0.501,0.053,0.532,0.817,0.089,0.902
	c-1.965,0.374-3.924,0.821-5.744,1.604c-1.524,1.879-3.069,3.55-4.925,4.538c-0.013,0.007-0.027,0.013-0.04,0.02
	c-0.903,0.475-1.882,0.786-2.967,0.88c0.02,0.902,0.04,1.828,0.06,2.765c0.005,0.214,0.009,0.43,0.014,0.646
	c0.147,7.007,0.276,14.855,0.267,22.469c8.519-2.563,16.925-5.065,23.626-6.641c0.003,0.012,0.006,0.023,0.009,0.035
	c2.862-1.091,5.888-1.625,8.917-1.591c3.29-0.752,7.24,0.425,10.003,2.208c0.424,0.273,0.105,0.969-0.327,0.845
	c-1.922-0.553-3.872-1.039-5.849-1.161c-0.036-0.002-0.071-0.001-0.106-0.003c0.059,0.12,0.118,0.24,0.17,0.359
	c2.634,0.096,5.381,1.097,7.457,2.436c0.424,0.273,0.105,0.969-0.327,0.845c-1.922-0.553-3.872-1.039-5.849-1.161
	c-0.246-0.015-0.491-0.02-0.735-0.018c0,0.004,0.001,0.008,0.001,0.013c2.3,0.283,4.609,1.187,6.411,2.349
	c0.424,0.273,0.105,0.969-0.327,0.845c-1.922-0.553-3.872-1.039-5.849-1.161c-0.108-0.007-0.215-0.006-0.323-0.01
	c-0.017,0.108-0.036,0.218-0.057,0.328c2.052,0.368,4.067,1.2,5.677,2.239c0.424,0.273,0.105,0.969-0.327,0.845
	c-1.922-0.553-3.872-1.039-5.849-1.161c-3.81,1.707-7.399,2.84-10.989,0.516c-11.896,9.395-25,17.28-38.911,23.284
	c-5.508,2.377-11.138,4.469-16.875,6.231l-2.107-1.466l-21.49-14.95l13.162-17.627C163.204,256.712,167.116,259.936,170.892,263.121
	z M172.552,264.524c0.106,0.09,0.215,0.181,0.321,0.271c0.039-0.009,0.081-0.02,0.12-0.029L172.552,264.524z M206.482,217.285
	c-0.298,0.043-0.594,0.107-0.89,0.167l-0.462,2.094c1.546-0.617,3.18-1.018,4.83-1.344L206.482,217.285z"></path>
<path id="color_x5F_2" fill="#FBC02D" d="M151.688,479.913h-11.963h-1.401c-5.081-18.231-5.101-39.299,1.257-57.043
	c10.027-27.984-12.013-59.463-10.271-89.423c12.74,4.577,34.335,1.195,42.559-6.339l44.944,65.364
	c4.381,8.077,5.316,17.583,2.578,26.354c-1.907,6.108-4.517,16.535-7.065,27.238c-0.05,0.208-0.099,0.415-0.149,0.623
	c-2.936,12.352-5.769,24.968-7.327,31.65l-1.151-0.189l-11.805-1.94l-1.383-0.227c-1.165-10.65-0.031-27.136,2.774-41.903
	c0.042-0.223,0.083-0.448,0.126-0.67c1.732-8.921,4.075-17.168,6.893-23.053l-34.228-37.937
	c-0.609,10.524-1.516,21.017-2.962,31.034c-0.04,0.276-0.086,0.547-0.126,0.822c-0.758,5.128-1.648,10.136-2.724,14.942
	c-4.505,20.104-6.042,40.051-7.41,60.697L151.688,479.913L151.688,479.913z M288.618,204.973H258.63V185.89h29.988V204.973z
	 M272.176,203.284l-5.11-14.974h-2.332l-5.088,14.974h1.999l1.556-4.71h5.31l1.6,4.71H272.176z M286.66,195.441
	c0-2.421-0.777-4.154-2.111-5.376c-1.311-1.222-3.287-1.866-6.064-1.866c-1.533,0-2.933,0.133-4.11,0.311v14.73
	c0.978,0.111,2.133,0.178,3.511,0.178c2.91,0,5.221-0.755,6.62-2.155C285.904,199.885,286.66,197.886,286.66,195.441z
	 M278.573,189.732c-1,0-1.755,0.089-2.267,0.2v11.819c0.489,0.089,1.2,0.111,1.955,0.111c4.133,0,6.377-2.311,6.377-6.354
	C284.66,191.975,282.661,189.732,278.573,189.732z M265.867,190.02h-0.045c-0.222,0.889-0.467,1.8-0.755,2.711l-1.467,4.332h4.511
	l-1.467-4.31C266.311,191.776,266.088,190.887,265.867,190.02z M396.339,161.498c-0.731,0-1.283,0.065-1.657,0.146v8.642
	c0.358,0.065,0.878,0.081,1.429,0.081c3.022,0,4.663-1.689,4.663-4.646C400.789,163.138,399.328,161.498,396.339,161.498z
	 M387.049,161.709h-0.033c-0.162,0.65-0.341,1.316-0.552,1.982l-1.072,3.167h3.298l-1.072-3.151
	C387.374,162.992,387.211,162.342,387.049,161.709z M402.972,158.453v13.574h-21.331v-13.574H402.972z M391.662,171.407
	l-3.736-10.948h-1.705l-3.72,10.948h1.462l1.137-3.444h3.882l1.17,3.444H391.662z M402.252,165.672c0-1.77-0.568-3.037-1.544-3.931
	c-0.958-0.894-2.403-1.365-4.434-1.365c-1.121,0-2.144,0.097-3.005,0.227v10.77c0.715,0.081,1.559,0.13,2.567,0.13
	c2.128,0,3.817-0.552,4.84-1.576C401.699,168.921,402.252,167.459,402.252,165.672z M392.306,183.53h-10.665v8.509h10.665V183.53z
	 M393.397,192.04h9.575v-8.509h-9.575V192.04z M337.394,256.874c0.019-3.11-1.741-5.085-5.34-5.085c-0.88,0-1.545,0.078-1.995,0.176
	v10.405c0.431,0.078,1.057,0.098,1.721,0.098C335.419,262.468,337.394,260.434,337.394,256.874z M320.869,252.043h-0.04
	c-0.195,0.782-0.411,1.584-0.665,2.387l-1.291,3.814h3.971l-1.291-3.794C321.261,253.589,321.065,252.806,320.869,252.043z
	 M326.804,249.064l26.67-16.31v32.48h-52.38v-32.88L326.804,249.064z M326.424,263.72l-4.499-13.182h-2.053l-4.479,13.182h1.76
	l1.37-4.146h4.674l1.408,4.146H326.424z M328.358,263.681c0.861,0.098,1.878,0.156,3.091,0.156c2.562,0,4.596-0.665,5.828-1.897
	c1.232-1.213,1.897-2.973,1.897-5.125c0-2.132-0.684-3.657-1.859-4.733c-1.154-1.076-2.894-1.643-5.339-1.643
	c-1.35,0-2.582,0.117-3.618,0.273V263.681z"></path>
<path id="color_x5F_1" fill="#0984E3" d="M261.531,410.245c0.195,0.063,0.302,0.273,0.239,0.468
	c-0.051,0.157-0.197,0.257-0.353,0.257c-0.038,0-0.077-0.006-0.115-0.018c-0.952-0.308-1.9-0.629-2.841-0.961
	c-0.193-0.068-0.295-0.281-0.227-0.474c0.069-0.193,0.28-0.296,0.474-0.226C259.644,409.62,260.585,409.938,261.531,410.245z
	 M274.454,413.626c-0.201-0.042-0.397,0.09-0.437,0.291s0.09,0.397,0.291,0.437c0.975,0.196,1.954,0.38,2.938,0.551
	c0.021,0.004,0.043,0.006,0.064,0.006c0.177,0,0.334-0.127,0.366-0.308c0.035-0.202-0.1-0.395-0.302-0.429
	C276.396,414.003,275.423,413.82,274.454,413.626z M290.64,415.717c-0.2-0.018-0.38,0.144-0.392,0.349s0.144,0.381,0.349,0.393
	c0.992,0.058,1.987,0.105,2.986,0.139c0.004,0,0.008,0,0.013,0c0.199,0,0.364-0.158,0.371-0.359
	c0.007-0.205-0.153-0.377-0.359-0.384C292.615,415.82,291.626,415.775,290.64,415.717z M392.291,367.723
	c-0.583,0.801-1.177,1.595-1.78,2.38c-0.125,0.163-0.094,0.396,0.068,0.521c0.067,0.052,0.147,0.077,0.226,0.077
	c0.111,0,0.221-0.05,0.295-0.145c0.607-0.792,1.204-1.59,1.792-2.396c0.12-0.165,0.084-0.398-0.082-0.519
	C392.644,367.521,392.411,367.557,392.291,367.723z M266.509,411.737c-0.197-0.053-0.402,0.062-0.457,0.26
	c-0.054,0.198,0.062,0.403,0.259,0.457c0.959,0.264,1.923,0.516,2.892,0.756c0.03,0.007,0.06,0.011,0.09,0.011
	c0.167,0,0.318-0.113,0.36-0.282c0.049-0.199-0.072-0.4-0.271-0.45C268.42,412.249,267.462,411.999,266.509,411.737z
	 M243.702,402.778c-0.183-0.095-0.407-0.025-0.501,0.158c-0.095,0.181-0.024,0.406,0.158,0.501c0.885,0.461,1.777,0.911,2.675,1.349
	c0.053,0.025,0.108,0.038,0.163,0.038c0.137,0,0.27-0.077,0.334-0.208c0.09-0.184,0.014-0.407-0.171-0.497
	C245.467,403.682,244.581,403.235,243.702,402.778z M249.076,191.996c-0.086-0.186-0.305-0.267-0.493-0.183
	c-0.904,0.415-1.802,0.841-2.693,1.277c-0.184,0.09-0.26,0.313-0.17,0.497c0.065,0.131,0.197,0.208,0.334,0.208
	c0.055,0,0.111-0.012,0.163-0.038c0.885-0.434,1.777-0.857,2.676-1.269C249.079,192.403,249.161,192.183,249.076,191.996z
	 M251.087,406.297c-0.187-0.082-0.406,0.005-0.489,0.193c-0.081,0.189,0.005,0.407,0.193,0.489c0.916,0.397,1.837,0.783,2.764,1.158
	c0.046,0.018,0.093,0.027,0.139,0.027c0.147,0,0.286-0.088,0.344-0.232c0.077-0.19-0.015-0.407-0.205-0.484
	C252.913,407.075,251.997,406.692,251.087,406.297z M282.511,414.953c-0.2-0.025-0.389,0.118-0.416,0.321
	c-0.026,0.204,0.118,0.39,0.321,0.416c0.986,0.127,1.976,0.242,2.969,0.345c0.013,0.001,0.026,0.002,0.038,0.002
	c0.188,0,0.349-0.142,0.369-0.333c0.021-0.205-0.127-0.387-0.332-0.408C284.474,415.193,283.491,415.08,282.511,414.953z
	 M199.952,234.452c0.112-0.169,0.066-0.396-0.101-0.51c0.005,0.214,0.009,0.43,0.014,0.646
	C199.894,234.543,199.922,234.497,199.952,234.452z M414.505,310.431c0.189,0,0.351-0.144,0.369-0.336
	c0.094-0.99,0.175-1.983,0.243-2.98c0.014-0.205-0.141-0.382-0.345-0.396c-0.205-0.009-0.382,0.141-0.396,0.345
	c-0.068,0.99-0.148,1.977-0.242,2.96c-0.019,0.204,0.131,0.386,0.335,0.405C414.481,310.431,414.493,310.431,414.505,310.431z
	 M202.799,230.277c-0.013,0.007-0.027,0.013-0.04,0.02C202.773,230.291,202.786,230.285,202.799,230.277z M415.363,301.891
	c0.025-0.993,0.037-1.989,0.037-2.988v-0.233c0-0.205-0.166-0.371-0.371-0.371s-0.371,0.166-0.371,0.371v0.233
	c0,0.993-0.012,1.983-0.037,2.97c-0.005,0.205,0.157,0.376,0.362,0.381c0.004,0,0.007,0,0.009,0
	C415.192,302.254,415.357,302.094,415.363,301.891z M406.007,254.068c0.048,0,0.096-0.009,0.143-0.029
	c0.189-0.079,0.279-0.296,0.2-0.486c-0.382-0.917-0.777-1.829-1.183-2.734c-0.084-0.188-0.304-0.271-0.49-0.188
	c-0.187,0.084-0.271,0.304-0.187,0.491c0.403,0.899,0.794,1.805,1.175,2.717C405.725,253.982,405.862,254.068,406.007,254.068z
	 M404.561,346.524c-0.405,0.908-0.821,1.809-1.248,2.704c-0.089,0.186-0.01,0.407,0.175,0.496c0.052,0.025,0.107,0.036,0.16,0.036
	c0.139,0,0.271-0.078,0.335-0.211c0.43-0.901,0.849-1.808,1.257-2.721c0.083-0.188-0.001-0.407-0.188-0.491
	C404.865,346.254,404.645,346.336,404.561,346.524z M408.892,261.72c0.039,0,0.08-0.006,0.119-0.02
	c0.194-0.066,0.299-0.276,0.233-0.471c-0.319-0.946-0.65-1.886-0.992-2.82c-0.07-0.192-0.283-0.291-0.477-0.221
	c-0.193,0.071-0.292,0.284-0.221,0.477c0.34,0.929,0.668,1.863,0.986,2.803C408.592,261.622,408.737,261.72,408.892,261.72z
	 M407.63,338.934c-0.34,0.934-0.691,1.863-1.055,2.786c-0.075,0.191,0.018,0.407,0.209,0.482c0.045,0.018,0.091,0.026,0.136,0.026
	c0.148,0,0.288-0.089,0.345-0.235c0.366-0.93,0.72-1.865,1.062-2.805c0.07-0.193-0.029-0.406-0.222-0.476
	C407.913,338.643,407.7,338.742,407.63,338.934z M209.528,220.898c0.031-0.004,0.061-0.012,0.091-0.015
	C209.586,220.882,209.56,220.891,209.528,220.898z M182.162,320.136c-0.202,0.037-0.335,0.231-0.297,0.433
	c0.183,0.981,0.378,1.958,0.584,2.931c0.037,0.175,0.192,0.295,0.363,0.295c0.025,0,0.052-0.003,0.078-0.008
	c0.201-0.043,0.329-0.24,0.286-0.44c-0.206-0.967-0.399-1.939-0.58-2.914C182.558,320.231,182.364,320.098,182.162,320.136z
	 M183.916,328.136c-0.198,0.052-0.317,0.255-0.266,0.453c0.251,0.966,0.514,1.927,0.789,2.883c0.047,0.163,0.195,0.269,0.357,0.269
	c0.034,0,0.069-0.004,0.103-0.015c0.197-0.057,0.311-0.263,0.254-0.459c-0.273-0.95-0.534-1.906-0.784-2.866
	C184.317,328.204,184.114,328.086,183.916,328.136z M179.91,296.032c-0.023,0.954-0.034,1.911-0.034,2.871v0.117
	c0,0.205,0.166,0.371,0.371,0.371s0.371-0.166,0.371-0.371v-0.117c0-0.954,0.012-1.905,0.034-2.853
	c0.005-0.205-0.157-0.375-0.362-0.38C180.082,295.658,179.916,295.827,179.91,296.032z M186.228,335.995
	c-0.194,0.065-0.299,0.276-0.234,0.47c0.318,0.946,0.648,1.887,0.989,2.821c0.055,0.15,0.197,0.244,0.349,0.244
	c0.042,0,0.085-0.007,0.127-0.023c0.193-0.07,0.292-0.284,0.222-0.477c-0.339-0.929-0.667-1.862-0.983-2.803
	C186.633,336.034,186.423,335.931,186.228,335.995z M189.081,343.66c-0.189,0.079-0.279,0.297-0.2,0.486
	c0.382,0.918,0.775,1.83,1.18,2.736c0.062,0.138,0.197,0.22,0.34,0.22c0.05,0,0.102-0.01,0.151-0.032
	c0.187-0.084,0.271-0.304,0.188-0.491c-0.402-0.9-0.793-1.806-1.173-2.718C189.488,343.67,189.27,343.584,189.081,343.66z
	 M181.391,315.727c0.017,0,0.034-0.001,0.052-0.004c0.203-0.028,0.345-0.216,0.316-0.419c-0.137-0.978-0.262-1.96-0.375-2.947
	c-0.023-0.203-0.208-0.352-0.411-0.326c-0.204,0.023-0.35,0.207-0.326,0.411c0.114,0.992,0.24,1.98,0.378,2.965
	C181.05,315.593,181.209,315.727,181.391,315.727z M180.521,291.205c0.194,0,0.357-0.15,0.37-0.346
	c0.067-0.99,0.147-1.977,0.239-2.961c0.019-0.204-0.131-0.385-0.336-0.404c-0.202-0.019-0.385,0.131-0.404,0.336
	c-0.092,0.99-0.172,1.983-0.24,2.98c-0.014,0.205,0.141,0.382,0.346,0.396C180.504,291.205,180.513,291.205,180.521,291.205z
	 M180.537,307.58c0.009,0,0.017,0,0.026-0.001c0.205-0.015,0.359-0.192,0.345-0.396c-0.069-0.985-0.125-1.974-0.17-2.966
	c-0.009-0.205-0.186-0.372-0.388-0.354c-0.205,0.009-0.363,0.183-0.354,0.388c0.045,0.998,0.102,1.993,0.171,2.984
	C180.18,307.43,180.343,307.58,180.537,307.58z M192.46,351.099c-0.183,0.092-0.258,0.316-0.165,0.498
	c0.445,0.889,0.902,1.772,1.369,2.649c0.067,0.125,0.196,0.197,0.328,0.197c0.059,0,0.119-0.014,0.174-0.044
	c0.181-0.096,0.25-0.321,0.153-0.503c-0.464-0.871-0.918-1.748-1.361-2.631C192.867,351.081,192.645,351.008,192.46,351.099z
	 M236.583,398.75c-0.175-0.107-0.404-0.051-0.511,0.123c-0.107,0.175-0.052,0.403,0.123,0.511c0.851,0.521,1.708,1.032,2.573,1.531
	c0.059,0.034,0.123,0.05,0.186,0.05c0.128,0,0.253-0.067,0.322-0.186c0.103-0.177,0.042-0.405-0.135-0.507
	C238.28,399.776,237.428,399.268,236.583,398.75z M222.759,389.315c-0.131,0.158-0.108,0.392,0.05,0.523
	c0.769,0.634,1.546,1.259,2.332,1.872c0.068,0.054,0.149,0.079,0.229,0.079c0.111,0,0.22-0.049,0.293-0.143
	c0.126-0.161,0.098-0.395-0.064-0.521c-0.781-0.611-1.553-1.231-2.318-1.861C223.124,389.134,222.89,389.159,222.759,389.315z
	 M216.637,383.87c-0.141,0.149-0.135,0.384,0.014,0.525c0.723,0.686,1.455,1.361,2.195,2.028c0.071,0.065,0.16,0.096,0.249,0.096
	c0.102,0,0.203-0.041,0.276-0.123c0.137-0.152,0.125-0.387-0.027-0.525c-0.736-0.663-1.463-1.336-2.182-2.017
	C217.013,383.716,216.778,383.721,216.637,383.87z M229.248,394.326c-0.119,0.167-0.08,0.399,0.087,0.518
	c0.812,0.578,1.631,1.148,2.458,1.706c0.064,0.044,0.136,0.064,0.208,0.064c0.119,0,0.236-0.057,0.308-0.163
	c0.115-0.17,0.07-0.401-0.1-0.516c-0.822-0.556-1.636-1.121-2.443-1.696C229.599,394.12,229.367,394.16,229.248,394.326z
	 M210.909,378.015c-0.151,0.139-0.161,0.374-0.023,0.525c0.674,0.734,1.357,1.46,2.049,2.176c0.073,0.075,0.17,0.113,0.267,0.113
	c0.093,0,0.186-0.035,0.258-0.104c0.147-0.142,0.151-0.377,0.009-0.525c-0.687-0.712-1.366-1.431-2.035-2.161
	C211.294,377.886,211.059,377.877,210.909,378.015z M205.601,371.78c-0.16,0.128-0.186,0.361-0.059,0.522
	c0.621,0.779,1.252,1.549,1.893,2.311c0.074,0.088,0.179,0.133,0.285,0.133c0.084,0,0.169-0.028,0.239-0.087
	c0.157-0.132,0.177-0.366,0.045-0.523c-0.636-0.757-1.263-1.523-1.88-2.296C205.995,371.677,205.762,371.651,205.601,371.78z
	 M196.354,358.289c-0.176,0.105-0.235,0.333-0.13,0.509c0.507,0.857,1.025,1.706,1.552,2.548c0.071,0.112,0.192,0.174,0.315,0.174
	c0.067,0,0.136-0.018,0.197-0.057c0.174-0.109,0.226-0.338,0.117-0.512c-0.524-0.836-1.039-1.681-1.543-2.532
	C196.759,358.244,196.531,358.185,196.354,358.289z M200.742,365.193c-0.169,0.117-0.211,0.348-0.095,0.517
	c0.566,0.82,1.141,1.632,1.727,2.435c0.073,0.1,0.186,0.153,0.301,0.153c0.076,0,0.152-0.023,0.218-0.071
	c0.166-0.121,0.202-0.353,0.082-0.519c-0.582-0.799-1.154-1.605-1.716-2.421C201.142,365.119,200.91,365.077,200.742,365.193z
	 M241.254,195.492c-0.873,0.477-1.739,0.965-2.599,1.463c-0.178,0.103-0.238,0.33-0.135,0.508c0.069,0.119,0.194,0.185,0.322,0.185
	c0.063,0,0.127-0.016,0.186-0.05c0.854-0.495,1.715-0.98,2.582-1.454c0.18-0.098,0.246-0.324,0.148-0.504
	C241.66,195.459,241.434,195.393,241.254,195.492z M394.257,232.583c0.073,0,0.147-0.021,0.211-0.066
	c0.169-0.116,0.211-0.348,0.094-0.517c-0.566-0.819-1.143-1.631-1.729-2.434c-0.122-0.165-0.355-0.202-0.519-0.081
	c-0.165,0.121-0.202,0.353-0.081,0.519c0.583,0.798,1.156,1.604,1.719,2.418C394.023,232.527,394.139,232.583,394.257,232.583z
	 M402.597,246.642c0.057,0,0.113-0.013,0.167-0.039c0.184-0.092,0.257-0.316,0.165-0.499c-0.446-0.889-0.904-1.771-1.372-2.647
	c-0.098-0.182-0.325-0.248-0.503-0.152c-0.181,0.096-0.25,0.322-0.153,0.503c0.465,0.87,0.921,1.747,1.365,2.63
	C402.331,246.567,402.461,246.642,402.597,246.642z M207.303,223.432c-0.023,0.122,0.013,0.249,0.109,0.338
	c0.211-0.061,0.427-0.103,0.641-0.155c0.205-0.243,0.415-0.481,0.622-0.723c-0.397,0.138-0.792,0.282-1.177,0.448
	C207.432,223.37,207.368,223.401,207.303,223.432z M396.87,360.951c-0.527,0.841-1.064,1.674-1.611,2.5
	c-0.113,0.171-0.066,0.402,0.104,0.515c0.063,0.041,0.134,0.062,0.205,0.062c0.12,0,0.238-0.059,0.31-0.166
	c0.551-0.832,1.092-1.671,1.621-2.516c0.109-0.174,0.056-0.403-0.117-0.512S396.979,360.777,396.87,360.951z M363.058,395.941
	c-0.818,0.553-1.644,1.096-2.478,1.628c-0.173,0.111-0.224,0.34-0.114,0.513c0.071,0.111,0.192,0.172,0.313,0.172
	c0.069,0,0.138-0.019,0.2-0.058c0.839-0.536,1.67-1.082,2.494-1.64c0.17-0.115,0.215-0.345,0.099-0.516
	C363.459,395.871,363.228,395.826,363.058,395.941z M398.673,239.469c0.065,0,0.13-0.017,0.189-0.052
	c0.176-0.105,0.235-0.333,0.13-0.509c-0.508-0.856-1.026-1.705-1.554-2.546c-0.11-0.174-0.339-0.225-0.512-0.117
	c-0.174,0.109-0.226,0.338-0.117,0.512c0.525,0.836,1.04,1.68,1.545,2.531C398.423,239.404,398.547,239.469,398.673,239.469z
	 M410.616,330.9c-0.2-0.061-0.403,0.057-0.459,0.255c-0.273,0.953-0.557,1.901-0.853,2.845c-0.062,0.195,0.047,0.404,0.243,0.465
	c0.037,0.012,0.074,0.017,0.111,0.017c0.158,0,0.305-0.102,0.354-0.26c0.299-0.95,0.585-1.904,0.859-2.863
	C410.927,331.161,410.813,330.956,410.616,330.9z M400.968,353.874c-0.467,0.876-0.945,1.746-1.434,2.608
	c-0.101,0.178-0.038,0.405,0.141,0.506c0.058,0.033,0.12,0.048,0.183,0.048c0.129,0,0.255-0.068,0.324-0.189
	c0.491-0.868,0.972-1.743,1.442-2.624c0.096-0.181,0.028-0.406-0.153-0.503C401.29,353.626,401.065,353.693,400.968,353.874z
	 M411.237,269.569c0.03,0,0.062-0.004,0.094-0.012c0.199-0.052,0.318-0.255,0.266-0.453c-0.252-0.966-0.515-1.927-0.791-2.883
	c-0.057-0.197-0.265-0.31-0.46-0.254c-0.197,0.057-0.31,0.263-0.254,0.46c0.274,0.95,0.536,1.905,0.786,2.864
	C410.922,269.458,411.072,269.569,411.237,269.569z M365.631,203.568c0.116,0,0.23-0.054,0.302-0.156
	c0.119-0.167,0.08-0.399-0.087-0.518c-0.813-0.578-1.632-1.146-2.46-1.704c-0.17-0.113-0.4-0.07-0.516,0.1
	c-0.115,0.17-0.07,0.401,0.101,0.516c0.822,0.554,1.637,1.119,2.444,1.693C365.48,203.546,365.556,203.568,365.631,203.568z
	 M378.285,213.971c0.099,0,0.197-0.039,0.27-0.116c0.141-0.149,0.134-0.384-0.015-0.525c-0.724-0.684-1.458-1.36-2.198-2.026
	c-0.15-0.137-0.387-0.125-0.525,0.028c-0.137,0.153-0.125,0.387,0.028,0.525c0.736,0.662,1.464,1.334,2.184,2.014
	C378.101,213.937,378.193,213.971,378.285,213.971z M381.784,380.223c-0.688,0.712-1.385,1.415-2.091,2.11
	c-0.147,0.144-0.148,0.379-0.004,0.525c0.073,0.074,0.169,0.111,0.265,0.111c0.094,0,0.189-0.036,0.26-0.107
	c0.71-0.699,1.412-1.407,2.104-2.123c0.143-0.148,0.139-0.383-0.009-0.525S381.925,380.076,381.784,380.223z M387.253,374.157
	c-0.637,0.758-1.283,1.508-1.94,2.25c-0.136,0.153-0.122,0.388,0.032,0.524c0.07,0.063,0.158,0.094,0.246,0.094
	c0.102,0,0.205-0.042,0.278-0.126c0.661-0.747,1.312-1.501,1.953-2.265c0.132-0.157,0.112-0.391-0.046-0.523
	C387.619,373.979,387.385,374.001,387.253,374.157z M384.038,219.803c0.09,0,0.181-0.033,0.252-0.098
	c0.151-0.139,0.16-0.374,0.021-0.525c-0.675-0.732-1.358-1.457-2.051-2.172c-0.143-0.147-0.378-0.151-0.525-0.009
	c-0.147,0.143-0.152,0.378-0.009,0.525c0.688,0.711,1.368,1.431,2.039,2.159C383.838,219.763,383.938,219.803,384.038,219.803z
	 M375.909,385.893c-0.736,0.662-1.479,1.315-2.232,1.959c-0.156,0.133-0.174,0.368-0.041,0.524c0.073,0.086,0.178,0.13,0.282,0.13
	c0.086,0,0.171-0.029,0.242-0.089c0.757-0.648,1.505-1.305,2.245-1.97c0.153-0.137,0.165-0.372,0.028-0.524
	C376.295,385.768,376.06,385.756,375.909,385.893z M369.656,391.142c-0.779,0.609-1.566,1.208-2.361,1.798
	c-0.165,0.122-0.2,0.355-0.077,0.519c0.073,0.098,0.185,0.15,0.298,0.15c0.077,0,0.155-0.024,0.221-0.073
	c0.799-0.593,1.592-1.196,2.375-1.809c0.162-0.126,0.191-0.36,0.064-0.521C370.05,391.041,369.816,391.015,369.656,391.142z
	 M372.139,208.551c0.107,0,0.213-0.046,0.287-0.136c0.13-0.159,0.107-0.392-0.052-0.523c-0.77-0.633-1.548-1.256-2.334-1.87
	c-0.163-0.125-0.395-0.099-0.522,0.064c-0.126,0.162-0.097,0.395,0.065,0.521c0.781,0.61,1.554,1.229,2.319,1.858
	C371.972,208.523,372.056,208.551,372.139,208.551z M298.805,415.916c-0.205,0.002-0.37,0.17-0.368,0.375
	c0.002,0.204,0.168,0.368,0.371,0.368c0.001,0,0.002,0,0.004,0c0.998-0.01,1.994-0.032,2.985-0.066
	c0.205-0.007,0.365-0.179,0.358-0.385c-0.008-0.205-0.183-0.36-0.385-0.358C300.785,415.884,299.797,415.906,298.805,415.916z
	 M411.748,326.576c0.029,0.007,0.058,0.01,0.086,0.01c0.168,0,0.321-0.115,0.361-0.285c0.231-0.969,0.449-1.941,0.656-2.917
	c0.042-0.201-0.086-0.398-0.287-0.44c-0.202-0.038-0.398,0.086-0.44,0.287c-0.205,0.971-0.422,1.936-0.651,2.898
	C411.425,326.328,411.549,326.528,411.748,326.576z M353.741,402.416c0.06,0,0.121-0.015,0.178-0.045
	c0.873-0.477,1.74-0.963,2.6-1.461c0.178-0.102,0.239-0.33,0.136-0.507c-0.103-0.178-0.332-0.239-0.507-0.136
	c-0.855,0.495-1.716,0.979-2.584,1.451c-0.18,0.099-0.247,0.324-0.149,0.504C353.482,402.347,353.609,402.416,353.741,402.416z
	 M320.708,184.158c0.024,0.005,0.049,0.007,0.073,0.007c0.173,0,0.328-0.122,0.363-0.299c0.041-0.201-0.09-0.397-0.292-0.437
	c-0.975-0.195-1.954-0.378-2.939-0.549c-0.197-0.036-0.394,0.1-0.429,0.303c-0.036,0.202,0.1,0.394,0.302,0.429
	C318.765,183.782,319.739,183.964,320.708,184.158z M358.593,198.995c-0.747-0.457-1.502-0.902-2.259-1.343
	c-2.524,7.048-9.243,12.1-17.159,12.1c-10.075,0-18.242-8.167-18.242-18.242s8.167-18.242,18.242-18.242s18.242,8.167,18.242,18.242
	c0,1.892-0.288,3.716-0.823,5.432c0.801,0.464,1.598,0.936,2.387,1.418c0.175,0.107,0.23,0.336,0.123,0.511
	c-0.07,0.115-0.192,0.178-0.317,0.178C358.72,199.049,358.653,199.032,358.593,198.995z M348.711,191.51l-16.549-9.555v19.109
	L348.711,191.51z M413.391,318.55c0.021,0.004,0.041,0.005,0.062,0.005c0.178,0,0.335-0.129,0.366-0.31
	c0.163-0.982,0.313-1.967,0.451-2.956c0.028-0.204-0.113-0.391-0.316-0.419c-0.197-0.023-0.392,0.113-0.419,0.316
	c-0.137,0.983-0.286,1.962-0.448,2.937C413.052,318.325,413.188,318.516,413.391,318.55z M413.816,281.969
	c-0.203,0.029-0.345,0.217-0.316,0.42c0.138,0.978,0.264,1.96,0.378,2.946c0.022,0.189,0.183,0.329,0.369,0.329
	c0.015,0,0.029-0.001,0.044-0.003c0.204-0.024,0.35-0.208,0.326-0.412c-0.115-0.992-0.242-1.98-0.381-2.964
	C414.208,282.081,414.022,281.937,413.816,281.969z M413.093,277.557c0.202-0.038,0.334-0.232,0.297-0.433
	c-0.184-0.981-0.379-1.958-0.587-2.931c-0.044-0.2-0.239-0.33-0.441-0.285c-0.2,0.042-0.329,0.24-0.286,0.441
	c0.206,0.966,0.401,1.937,0.584,2.913c0.033,0.178,0.189,0.303,0.364,0.303C413.047,277.564,413.07,277.562,413.093,277.557z
	 M312.649,182.839c0.016,0.002,0.032,0.003,0.048,0.003c0.184,0,0.344-0.137,0.368-0.324c0.026-0.203-0.117-0.39-0.321-0.416
	c-0.986-0.127-1.976-0.24-2.969-0.342c-0.2-0.015-0.386,0.127-0.407,0.332c-0.021,0.204,0.127,0.386,0.332,0.407
	C310.685,182.6,311.668,182.713,312.649,182.839z M341.516,407.418c-0.917,0.371-1.84,0.731-2.768,1.08
	c-0.192,0.072-0.289,0.286-0.217,0.478c0.056,0.149,0.197,0.241,0.348,0.241c0.044,0,0.088-0.007,0.131-0.024
	c0.934-0.35,1.862-0.712,2.785-1.085c0.19-0.077,0.282-0.294,0.205-0.484C341.922,407.433,341.704,407.342,341.516,407.418z
	 M333.844,410.214c-0.94,0.306-1.886,0.6-2.837,0.882c-0.197,0.059-0.308,0.265-0.25,0.462c0.048,0.161,0.196,0.266,0.356,0.266
	c0.035,0,0.07-0.005,0.106-0.015c0.957-0.284,1.908-0.58,2.854-0.888c0.195-0.064,0.302-0.274,0.239-0.468
	C334.248,410.257,334.038,410.151,333.844,410.214z M315.074,414.632c-0.203,0.03-0.343,0.219-0.313,0.422
	c0.027,0.185,0.186,0.317,0.366,0.317c0.018,0,0.037-0.001,0.055-0.004c0.988-0.147,1.971-0.307,2.951-0.479
	c0.202-0.036,0.337-0.228,0.302-0.43c-0.035-0.203-0.239-0.343-0.43-0.302C317.032,414.327,316.055,414.485,315.074,414.632z
	 M325.993,412.464c-0.958,0.239-1.923,0.466-2.891,0.68c-0.2,0.044-0.326,0.243-0.282,0.443c0.038,0.173,0.192,0.291,0.363,0.291
	c0.026,0,0.054-0.003,0.081-0.009c0.974-0.216,1.944-0.445,2.91-0.685c0.199-0.049,0.32-0.251,0.271-0.451
	C326.394,412.535,326.193,412.414,325.993,412.464z M348.954,404.099c-0.886,0.433-1.778,0.855-2.677,1.266
	c-0.186,0.086-0.268,0.306-0.184,0.493c0.062,0.136,0.197,0.217,0.338,0.217c0.052,0,0.104-0.011,0.155-0.033
	c0.905-0.414,1.803-0.839,2.694-1.275c0.184-0.09,0.26-0.313,0.17-0.497C349.36,404.085,349.136,404.011,348.954,404.099z
	 M306.96,415.557c-0.205,0.016-0.358,0.194-0.341,0.399c0.015,0.194,0.178,0.342,0.369,0.342c0.01,0,0.02-0.001,0.03-0.001
	c0.997-0.078,1.989-0.169,2.977-0.273c0.204-0.021,0.353-0.204,0.331-0.408c-0.021-0.204-0.208-0.356-0.408-0.331
	C308.936,415.388,307.95,415.479,306.96,415.557z M414.36,290.508c0.07,0.985,0.128,1.973,0.173,2.965
	c0.009,0.199,0.173,0.355,0.371,0.355c0.005,0,0.011,0,0.017,0c0.205-0.009,0.363-0.183,0.354-0.388
	c-0.045-0.998-0.103-1.993-0.173-2.985c-0.015-0.205-0.207-0.362-0.397-0.344C414.5,290.126,414.345,290.304,414.36,290.508z
	 M301.552,181.948c0.992,0.033,1.982,0.078,2.967,0.135c0.007,0,0.015,0.001,0.022,0.001c0.196,0,0.359-0.152,0.371-0.35
	c0.012-0.205-0.144-0.381-0.349-0.392c-0.992-0.058-1.988-0.103-2.986-0.135c-0.004,0-0.009,0-0.012,0
	c-0.199,0-0.365,0.159-0.371,0.359C301.186,181.77,301.347,181.942,301.552,181.948z M389.369,226.017
	c0.081,0,0.163-0.026,0.232-0.081c0.16-0.128,0.186-0.362,0.058-0.522c-0.622-0.778-1.254-1.548-1.894-2.309
	c-0.133-0.157-0.367-0.176-0.524-0.045c-0.157,0.132-0.177,0.366-0.045,0.523c0.638,0.756,1.265,1.521,1.883,2.294
	C389.152,225.969,389.26,226.017,389.369,226.017z M297.638,126.389c34.048,0,65.794,10.006,92.486,27.207h1.135
	c-27.614-18.027-59.871-27.707-93.621-27.707c-45.22,0-87.764,17.368-120.039,48.932c0.107,0.176,0.2,0.356,0.297,0.536
	C208.796,145.088,251.068,126.389,297.638,126.389z M450.885,221.271c0.18-0.088,0.369-0.166,0.563-0.238
	c-8.179-16.383-19.039-31.515-32.364-44.841c-4.423-4.423-9.05-8.564-13.85-12.437v0.787
	C424.208,179.916,439.861,199.238,450.885,221.271z M212.178,446.686c0.049-0.208,0.099-0.415,0.149-0.623
	c7.043,4.064,14.402,7.636,22.028,10.681c0.44-0.734,0.895-1.46,1.381-2.165c0.389,1.047,0.765,2.1,1.146,3.15
	c1.122,0.427,2.245,0.853,3.378,1.257c-0.836-2.349-1.685-4.693-2.563-7.027c0.449-0.554,0.921-1.089,1.398-1.621
	c0.784,2.373,1.578,4.744,2.43,7.094c0.605,1.669,3.294,0.949,2.682-0.739c-1.036-2.857-1.99-5.742-2.938-8.63
	c1.262-1.22,2.599-2.365,4.001-3.426c0.577,5.566,1.241,11.12,1.985,16.661c0.97,0.299,1.941,0.597,2.918,0.88
	c-0.88-6.436-1.645-12.891-2.3-19.36c2.949-1.913,6.125-3.468,9.439-4.603c-0.61,8.565-0.967,17.135-0.575,25.72
	c0.933,0.23,1.874,0.441,2.813,0.656c-0.457-9.091-0.057-18.165,0.605-27.234c3.177-0.834,6.453-1.281,9.758-1.274
	c0.19,0,0.379,0.011,0.568,0.015c-1.914,9.878-3.888,19.767-5.359,29.667c0.88,0.17,1.761,0.338,2.646,0.495
	c1.476-10.019,3.487-20.029,5.437-30.02c2.317,0.208,4.602,0.637,6.839,1.247c-2.816,8.337-5.292,16.773-6.795,25.482
	c-0.302,1.75,2.377,2.502,2.682,0.739c1.498-8.679,3.963-17.086,6.767-25.395c2.405,0.834,4.742,1.876,6.97,3.125
	c-2.265,5.287-4.406,10.629-6.412,16.026c-4.987,13.419-9.941,27.387-12.801,41.635h-4.797c-0.462-10.776,0.467-21.551,2.032-32.314
	c-0.884-0.155-1.766-0.319-2.647-0.487c-1.602,10.92-2.572,21.853-2.133,32.801h-6.053c-2.784-11.983-4.92-24.109-6.604-36.312
	c-0.975-0.278-1.946-0.567-2.915-0.862c1.695,12.493,3.851,24.908,6.68,37.174h-0.841c-4.025-13.208-8.066-26.409-12.674-39.415
	c-1.123-0.395-2.242-0.802-3.356-1.22c4.827,13.391,9.005,27.006,13.15,40.635h-1.838c-0.451-0.847-0.909-1.691-1.355-2.542
	c-5.451-10.384-10.849-20.795-16.691-30.962c0.285-0.96,0.611-1.905,0.972-2.836c1.614,3.075,3.208,6.161,4.699,9.3
	c0.767,1.616,3.166,0.206,2.401-1.404c-1.785-3.758-3.724-7.44-5.672-11.117c0.384-0.772,0.801-1.527,1.233-2.274
	C226.524,454.269,219.218,450.737,212.178,446.686z M256.764,464.508c0.096,1.933,0.217,3.867,0.398,5.802
	c0.165,1.767,2.947,1.784,2.781,0c-0.16-1.715-0.273-3.43-0.367-5.144C258.637,464.954,257.699,464.735,256.764,464.508z
	 M193.287,434.077c0.042-0.223,0.083-0.448,0.126-0.67c-11.296-8.693-21.476-18.763-30.298-29.955
	c-0.04,0.276-0.086,0.547-0.126,0.822c4.088,5.144,8.488,10.091,13.204,14.808C181.604,424.494,187.317,429.493,193.287,434.077z
	 M229.476,469.55c-0.431,2.416-0.596,4.859-0.534,7.295c1.939,3.903,4.312,7.627,6.173,11.549c1.679,3.537,3.278,7.112,4.837,10.703
	h5.359c-0.496-0.939-0.995-1.877-1.487-2.817C239.129,487.321,234.454,478.352,229.476,469.55z M284.861,499.098h-4.84
	c2.297-5.274,4.813-10.397,6.974-15.254c2.159-4.854,4.328-9.701,6.56-14.518c-0.824-0.021-1.648-0.043-2.471-0.074
	c0.012-0.163,0.018-0.327,0.02-0.49c0.891,0.034,1.784,0.056,2.679,0.077c1.544-3.323,3.114-6.634,4.754-9.913
	c1.192-2.383,2.423-4.743,3.678-7.091c0.454,0.541,0.894,1.093,1.321,1.654c-0.907,1.848-1.832,3.685-2.729,5.521
	c-1.581,3.236-3.033,6.536-4.419,9.865c0.417,0.003,0.832,0.012,1.249,0.012c0.624,0,1.244-0.017,1.867-0.024
	c1.844-4.302,3.781-8.563,5.856-12.786c1.904,2.921,3.452,6.066,4.566,9.37c-0.94,1.037-1.85,2.095-2.737,3.168
	c90.001-4.973,161.698-79.757,161.698-170.978c0-22.445-4.348-43.891-12.233-63.551c0.184-0.073,0.362-0.153,0.534-0.24
	c8.001,20.021,12.2,41.582,12.2,63.791c0,45.875-17.865,89.006-50.304,121.445c-17.064,17.064-37.089,30.089-58.912,38.608
	c1.444-0.256,2.91-0.4,4.386-0.397c0.126,0,0.252,0.008,0.378,0.01c-2.693,13.898-5.58,27.829-5.038,41.794h-4.047
	c-2.844-12.27-4.68-24.763-5.952-37.325c0.519-0.337,1.051-0.655,1.591-0.957c-13.038,4.288-26.642,7.007-40.578,8.065
	c0.006,0.024,0.013,0.047,0.018,0.071c0.756,3.227,1.087,6.522,1.039,9.813c-5.812,6.521-11.667,13.214-16.767,20.334h-7.389
	c2.094-5.835,4.247-11.649,6.488-17.43c1.605-4.141,3.262-8.238,4.996-12.301c-0.552,0.005-1.103,0.02-1.657,0.02
	c-0.486,0-0.97-0.011-1.455-0.016c-1.827,4.416-3.54,8.882-5.251,13.333C288.84,488.143,286.824,493.611,284.861,499.098z
	 M358.042,458.499c-0.632,0.237-1.264,0.476-1.899,0.706c-0.483,6.942-0.716,13.889-0.066,20.853c0.11,1.175,1.96,1.187,1.85,0
	C357.254,472.858,357.526,465.676,358.042,458.499z M306.748,469.145c-3.367,4.149-6.244,8.61-8.049,13.695
	c-0.6,1.69,2.086,2.417,2.682,0.739c1.947-5.487,5.256-10.238,9.085-14.661C309.23,469.009,307.99,469.081,306.748,469.145z
	 M284.103,483.538c4.159-9.288,8.264-18.587,12.865-27.669c1.061-2.095,2.166-4.164,3.284-6.226
	c-0.618-0.646-1.256-1.272-1.911-1.88c-2.011,3.245-4.025,6.488-6.163,9.652c-0.998,1.476-3.406,0.083-2.401-1.404
	c2.235-3.308,4.337-6.7,6.439-10.093c-1.329-1.087-2.717-2.102-4.158-3.032c-2.159,5.054-4.203,10.158-6.12,15.316
	c-4.896,13.173-9.79,26.9-12.649,40.896h3.744C279.333,493.722,281.881,488.498,284.103,483.538z M337.662,479.553
	c-0.286,1.607-0.397,3.232-0.355,4.852c1.29,2.596,2.868,5.073,4.105,7.681c1.1,2.317,2.148,4.659,3.17,7.012h3.555
	c-0.311-0.589-0.624-1.177-0.933-1.767C344.082,491.372,340.973,485.407,337.662,479.553z M345.504,465.262
	c0.63,1.92,1.265,3.839,1.954,5.739c0.407,1.123-1.381,1.602-1.784,0.492c-0.567-1.563-1.095-3.14-1.616-4.718
	c-0.317,0.354-0.631,0.71-0.93,1.078c3.86,10.264,7.067,20.752,10.265,31.245h0.568c-2.734-11.878-4.536-23.962-5.796-36.114
	C347.233,463.689,346.344,464.45,345.504,465.262z M339.883,472.893c1.296,2.445,2.585,4.894,3.773,7.394
	c0.508,1.071-1.087,2.008-1.597,0.934c-0.992-2.088-2.052-4.14-3.125-6.185c-0.24,0.619-0.457,1.248-0.647,1.886
	c3.886,6.762,7.476,13.686,11.101,20.592c0.278,0.53,0.563,1.056,0.844,1.583h1.246c-3.013-9.906-6.048-19.803-9.653-29.502
	C341.1,470.648,340.451,471.751,339.883,472.893z M378.536,488.301c2.04-5.306,4.072-10.648,6.568-15.759
	c0.596-1.221,1.211-2.443,1.815-3.672c-0.284-0.374-0.577-0.74-0.879-1.1c-0.834,1.562-1.653,3.131-2.446,4.716
	c-2.726,5.449-5.201,11.008-7.677,16.573c-1.422,3.197-3.075,6.568-4.591,10.038h3.21
	C375.831,495.485,377.158,491.884,378.536,488.301z M373.431,471.513c1.334-3.59,2.758-7.142,4.264-10.659
	c-1.482-0.831-3.036-1.523-4.636-2.078c-1.865,5.526-3.504,11.118-4.5,16.89c-0.202,1.172-1.984,0.672-1.783-0.492
	c1-5.792,2.647-11.403,4.52-16.948c-1.488-0.406-3.008-0.691-4.549-0.829c-2.706,13.864-5.602,27.78-5.023,41.7h3.216
	C366.845,489.658,370.126,480.405,373.431,471.513z M373.994,488.856c2.766-6.177,5.496-12.362,8.556-18.402
	c0.706-1.393,1.441-2.769,2.184-4.141c-0.411-0.43-0.835-0.846-1.271-1.25c-1.337,2.158-2.677,4.315-4.099,6.419
	c-0.664,0.982-2.265,0.055-1.597-0.934c1.487-2.2,2.885-4.456,4.282-6.713c-0.884-0.723-1.807-1.398-2.765-2.017
	c-1.436,3.361-2.795,6.756-4.07,10.186c-3.244,8.727-6.485,17.821-8.389,27.093h2.513
	C370.857,495.56,372.531,492.122,373.994,488.856z M392.526,485.681c0.032-2.188-0.188-4.38-0.691-6.526
	c-0.023-0.098-0.052-0.195-0.076-0.293c-2.646,3.018-4.939,6.261-6.273,10.022c-0.396,1.116-2.182,0.632-1.784-0.492
	c1.564-4.407,4.334-8.112,7.466-11.568c-0.74-2.198-1.77-4.29-3.036-6.232c-2.735,5.567-5.114,11.235-7.357,17.02
	c-1.477,3.81-2.895,7.641-4.276,11.485h4.959C384.831,494.403,388.69,489.985,392.526,485.681z M171.87,327.107
	c0.504-0.461,0.967-0.935,1.365-1.427c-2.535-13.163-4.487-26.366-5.641-39.621l-21.49-14.95l13.162-17.627
	c3.939,3.231,7.851,6.454,11.626,9.64c2.279-6,4.301-12.11,6.274-18.441l-10.904-9.844l-0.001,0.002
	c-0.236-0.347-0.506-0.672-0.818-0.965c-2.78-2.612-6.442-5.106-10.483-6.982l-0.608,7.213l-1.933-0.163
	c-3.712-3.969-7.846-7.485-12.685-9.776l0.04-0.48c-7.443,0.546-14.242,4.835-17.714,15.608
	c-10.351,32.121-3.341,60.738,4.997,93.223c0.712,0.343,1.469,0.65,2.253,0.931C142.05,338.023,163.646,334.641,171.87,327.107z
	 M204.425,219.513c-0.062,1.163-0.791,2.208-1.709,2.925c-0.918,0.716-1.901,1.137-2.984,1.566c0.095,1.087-0.177,2.203-0.761,3.125
	c-0.105,0.166-0.229,0.32-0.364,0.463c0.193,0.501,0.671,0.873,1.259,0.873h2.205c0.636,0,1.187-0.442,1.324-1.064l1.645-7.453
	l0.089-0.402l0.462-2.094l0.084-0.38l-2.781-0.733v-10.846h-5.127c-1.436,0-2.6,1.164-2.6,2.6v5.645c0,1.436,1.164,2.6,2.6,2.6
	h3.087l-0.798,3.617l-0.401,1.819C201.377,221.348,203.014,220.592,204.425,219.513z M219.07,220.604l9.457,5.663
	c1.701,1.019,3.863-0.207,3.863-2.19v-22.325c0.731-0.492,1.465-0.978,2.207-1.454c0.173-0.111,0.223-0.34,0.112-0.513
	c-0.11-0.173-0.341-0.224-0.513-0.112c-0.607,0.389-1.207,0.79-1.806,1.19v-3.109c0-1.983-2.162-3.208-3.863-2.19l-9.457,5.663
	V220.604z M296.384,214.941h-44.899v-62.395h44.899v28.614c0.195,0.04,0.336,0.165,0.338,0.357c0.002,0.194-0.147,0.351-0.338,0.369
	V214.941z M291.814,158.896h-35.759v49.694h35.759V158.896z M288.618,163.807H258.63v2.181h29.988V163.807z M288.618,168.987H258.63
	v2.181h29.988V168.987z M288.618,174.167H258.63v2.181h29.988V174.167z M288.618,181.527v-2.181H258.63v2.181H288.618z
	 M381.641,175.326h21.331v-1.2h-21.331V175.326z M381.641,177.609h21.331v-1.2h-21.331V177.609z M381.641,179.892h21.331v-1.2
	h-21.331V179.892z M381.641,182.176h21.331v-1.2h-21.331V182.176z M381.641,194.117h21.331v-1.2h-21.331V194.117z M381.641,196.89
	h21.331v-1.2h-21.331V196.89z"></path>
</svg>