<?xml version="1.0" standalone="no"?>
<svg version="1.1" id="Layer_2" xmlns="http://www.w3.org/2000/svg" xmlns:xlink="http://www.w3.org/1999/xlink" x="0px" y="0px" width="595.28px" height="595.28px" viewBox="0 0 595.28 595.28" enable-background="new 0 0 595.28 595.28" xml:space="preserve">
<path id="color_x5F_6" fill="#AFAFB4" d="M208.622,205.363h79.495v9.553h-79.495V205.363z M208.622,233.691h79.495v-9.553h-79.495
	V233.691z M208.622,252.467h79.495v-9.553h-79.495V252.467z M208.622,271.243h79.495v-9.554h-79.495V271.243z M208.622,324.606
	h79.495v-9.554h-79.495V324.606z M208.622,343.381h79.495v-9.553h-79.495V343.381z M208.622,362.156h79.495v-9.552h-79.495V362.156z
	 M208.622,380.933h79.495v-9.553h-79.495V380.933z M97.053,434.735h191.064v-12.979H97.053V434.735z M184.163,315.351h-58.875v9.552
	h58.875V315.351z M184.163,334.126h-58.875v9.552h58.875V334.126z M184.163,352.901h-58.875v9.552h58.875V352.901z M125.288,381.229
	h58.875v-9.553h-58.875V381.229z"></path>
<path id="color_x5F_5" fill="#FFD2BB" d="M152.791,200.215l-1.431,3.093l-1.056,2.282v-4.604v-3.29
	c-1.432-0.064-2.787-0.639-4.038-1.682c-2.533-2.111-2.533-4.645-2.533-4.645s-0.423,1.689-3.167,1.9s-4.645-2.533-4.645-2.533
	s0.634,1.688-2.321,4.644c-1.091,1.091-1.662,2.094-1.951,2.927v2.802v4.48l-1.198-2.589l-1.279-2.763l-0.005-0.001
	c0,0-0.007-0.021-0.009-0.026c-1.118-0.056-2.208,0.562-2.691,1.645c-0.476,1.069,0.768,3.397,1.413,3.685l2.571,1.146v0.647
	c0,3.102,1.538,6.156,3.937,8.202l-0.962,3.184c0.012,0.013,0.024,0.025,0.035,0.038l-1.036,3.435h2.864l6.128,4.14l5.903-4.14
	h2.066l-0.954-3.222l-0.963-3.254c2.753-2.352,3.891-5.983,3.891-8.382v-0.708l2.437-1.085c1.407-0.627,2.04-2.277,1.413-3.685
	C154.766,200.861,153.81,200.265,152.791,200.215z M135.921,203.941c-0.457,0.003-0.85-0.598-0.867-1.35
	c-0.005-0.2,0.018-0.388,0.062-0.56h1.525c0.049,0.166,0.078,0.348,0.082,0.541C136.739,203.322,136.384,203.936,135.921,203.941z
	 M145.891,203.941c-0.462-0.006-0.817-0.62-0.801-1.369c0.003-0.193,0.033-0.375,0.082-0.541h1.526
	c0.043,0.172,0.066,0.36,0.062,0.56C146.741,203.343,146.349,203.945,145.891,203.941z M393.202,179.093l-1.728,3.734l-1.275,2.757
	v-5.561v-3.969c-1.729-0.078-3.366-0.775-4.878-2.034c-3.06-2.55-3.06-5.61-3.06-5.61s-0.509,2.04-3.824,2.295
	c-3.313,0.254-5.608-3.06-5.608-3.06s0.766,2.04-2.805,5.609c-1.316,1.316-2.006,2.527-2.355,3.533v3.386v5.411l-1.447-3.128
	l-1.544-3.336l-0.007-0.001c0,0-0.004-0.011-0.011-0.031c-1.352-0.068-2.667,0.678-3.251,1.987c-0.575,1.291,0.927,4.103,1.707,4.45
	l3.105,1.384v0.782c0,3.747,1.857,7.436,4.753,9.906l-1.161,3.845c0.015,0.016,0.029,0.031,0.043,0.046l-1.251,4.147h3.459l7.402,5
	l7.13-5h2.493l-1.152-3.892l-1.163-3.93c3.325-2.84,4.7-7.226,4.7-10.123v-0.855l2.941-1.31c1.7-0.757,2.464-2.75,1.707-4.45
	C395.587,179.873,394.432,179.152,393.202,179.093z M372.827,183.593c-0.553,0.005-1.026-0.722-1.048-1.63
	c-0.005-0.242,0.022-0.469,0.075-0.676h1.842c0.059,0.2,0.095,0.42,0.1,0.653C373.815,182.845,373.387,183.586,372.827,183.593z
	 M384.868,183.593c-0.559-0.007-0.986-0.748-0.968-1.653c0.004-0.233,0.041-0.453,0.1-0.653h1.843
	c0.053,0.207,0.08,0.435,0.074,0.676C385.896,182.871,385.421,183.598,384.868,183.593z M327.745,254.524
	c1.729,5.135,0.198,10.56-3.46,13.994c-1.313,1.232-2.895,2.215-4.706,2.826c-1.362,0.458-2.747,0.668-4.112,0.669
	c-5.512,0.004-10.684-3.528-12.566-9.12c-1.675-4.973-5.679-26.201-5.363-38.836c-2.054-1.462-4.085-4.947-5.539-8.533
	c-1.704-4.205-2.678-8.232-1.344-8.539c2.257-0.521,2.231,7.449,4.517,7.066c1.366-0.229-4.408-10.383-1.57-11.216
	c2.544-0.748,2.368,9.113,4.482,8.6c2.108-0.505-3.106-9.944-0.334-10.85c2.604-0.85,2.307,9.516,4.043,10.611
	c0.016,0.009,0.033,0.001,0.047,0.01c0.103,0.054,0.209,0.092,0.326,0.078c2.16-0.239-1.975-8.458,0.695-9.232
	c2.351-0.684,1.952,10.719,4.304,11.719c2.115,0.9,1.354-4.834,3.207-4.207c2.049,0.692,0.043,7.675-1.746,10.925
	c2.217,2.79,4.569,6.314,6.842,10.049c1.072,1.763,2.126,3.572,3.141,5.374C323.079,243.849,326.769,251.626,327.745,254.524z
	 M478.081,308.292c-1.967,1.969-7.177-5.614-8.427-3.838c-0.068,0.098-0.086,0.21-0.088,0.324c0,0.018-0.015,0.029-0.014,0.047
	c0.122,2.048,9.351,6.781,7.351,8.654c-2.129,1.993-7.889-7.123-9.348-5.519c-1.468,1.604,7.259,6.202,5.377,8.07
	c-2.096,2.085-8.213-7.867-9.072-6.779c-1.437,1.819,5.561,5.636,4.018,7.362c-0.911,1.021-3.973-1.771-6.836-5.291
	c-2.53-3.109-4.688-6.723-4.854-9.242c-0.028-0.438-0.034-0.844-0.026-1.229c-11.691-3.538-32.128-16.205-36.408-19.777
	c-2.273-1.896-3.75-4.379-4.421-7.029c-0.996-3.941-0.19-8.253,2.582-11.577c4.546-5.445,12.642-6.197,18.285-1.786
	c0.115,0.09,0.236,0.168,0.35,0.263c4.451,3.713,21.717,22.859,26.596,33.547c0.071-0.013,0.133-0.029,0.206-0.042
	c0.226-0.042,0.495-0.066,0.789-0.082c3.501-0.181,11.374,1.482,10.975,3.724c-0.343,1.925-5.001-1.504-5.232,0.784
	C469.626,301.419,479.813,306.563,478.081,308.292z"></path>
<path id="color_x5F_4_1_" fill="#E4E4F2" d="M315.467,230.537v-85.782h-243v318.414h243V272.012
	c-5.512,0.004-10.684-3.528-12.566-9.12c-1.675-4.973-5.679-26.201-5.363-38.836c-2.054-1.462-4.085-4.947-5.539-8.533
	c-1.704-4.205-2.678-8.232-1.344-8.539c2.257-0.521,2.231,7.449,4.517,7.066c1.366-0.229-4.408-10.383-1.57-11.216
	c2.544-0.748,2.368,9.113,4.482,8.6c2.108-0.505-3.106-9.944-0.334-10.85c2.604-0.85,2.307,9.516,4.043,10.611
	c0.016,0.009,0.033,0.001,0.047,0.01c0.103,0.054,0.209,0.092,0.326,0.078c2.16-0.239-1.975-8.458,0.695-9.232
	c2.351-0.684,1.952,10.719,4.304,11.719c2.115,0.9,1.354-4.834,3.207-4.207c2.049,0.692,0.043,7.675-1.746,10.925
	C310.842,223.277,313.194,226.802,315.467,230.537z M142.758,168.471c24.525,0,44.405,19.881,44.405,44.406
	c0,8.006-2.12,15.525-5.829,22.016c-0.911,1.59-1.921,3.121-3.006,4.578c-1.888,2.518-4.032,4.828-6.4,6.89
	c-1.904,1.664-3.949,3.163-6.119,4.488c-1.507,0.919-3.08,1.747-4.702,2.483c-5.267,2.393-11.079,3.792-17.206,3.941
	c-0.381,0.009-0.762,0.017-1.143,0.017c-1.449,0-2.882-0.065-4.297-0.207h-0.009c-6.5-0.621-12.585-2.648-17.959-5.771
	c-6.757-3.925-12.387-9.588-16.287-16.37c-0.174-0.314-0.348-0.629-0.521-0.944c-3.402-6.284-5.332-13.479-5.332-21.122
	C98.353,188.352,118.232,168.471,142.758,168.471z M125.288,362.453v-9.552h58.875v9.552H125.288z M184.163,371.677v9.553h-58.875
	v-9.553H184.163z M125.288,343.678v-9.552h58.875v9.552H125.288z M125.288,324.902v-9.552h58.875v9.552H125.288z M100.01,300.407
	v-12.985h84.153v12.985H100.01z M106.576,363.568c-3.254,0-5.892-2.637-5.892-5.892c0-3.253,2.638-5.891,5.892-5.891
	c3.253,0,5.891,2.638,5.891,5.891C112.467,360.932,109.829,363.568,106.576,363.568z M112.467,376.452
	c0,3.254-2.638,5.892-5.891,5.892c-3.254,0-5.892-2.638-5.892-5.892c0-3.253,2.638-5.891,5.892-5.891
	C109.829,370.562,112.467,373.199,112.467,376.452z M106.576,344.793c-3.254,0-5.892-2.637-5.892-5.891s2.638-5.892,5.892-5.892
	c3.253,0,5.891,2.638,5.891,5.892S109.829,344.793,106.576,344.793z M106.576,326.018c-3.254,0-5.892-2.637-5.892-5.891
	s2.638-5.892,5.892-5.892c3.253,0,5.891,2.638,5.891,5.892S109.829,326.018,106.576,326.018z M288.117,434.735H97.053v-12.979
	h191.064V434.735z M288.117,410.434H97.053v-12.984h191.064V410.434z M288.117,380.933h-79.495v-9.553h79.495V380.933z
	 M288.117,362.156h-79.495v-9.552h79.495V362.156z M288.117,343.381h-79.495v-9.553h79.495V343.381z M288.117,324.606h-79.495
	v-9.554h79.495V324.606z M288.117,300.304h-79.495v-12.985h79.495V300.304z M288.117,271.243h-79.495v-9.554h79.495V271.243z
	 M288.117,252.467h-79.495v-9.553h79.495V252.467z M288.117,233.691h-79.495v-9.553h79.495V233.691z M288.117,214.916h-79.495
	v-9.553h79.495V214.916z M288.117,190.614h-79.495v-12.984h79.495V190.614z"></path>
<path id="color_x5F_3" display="none" fill="#942058" d="M435.073,427.692c0.455-0.054,0.96-0.111,1.506-0.171
	c-0.133,0.799-0.244,1.604-0.316,2.422C435.911,429.167,435.506,428.421,435.073,427.692z M388.369,388.296
	c0.036,2.535,0.836,5.651,2.117,9.046C389.714,394.098,388.998,391.045,388.369,388.296z M452.606,395.121
	c7.295-7.765,23.396-32.372,16.863-43.108c-7.741-12.719-30.833,19.569-21.551,5.36c9.28-14.206,9.746-41.783-12.864-51.722
	c-22.61-9.938-12.538,34.24-11.479,49.538s-4.117,20.246-4.117,20.246s-1.337-15.568-11.638-24.132
	c0.603,12.699,1.243,26.173,1.855,38.993c0.21,0.421,0.411,0.822,0.604,1.206c-0.188-0.307-0.383-0.618-0.592-0.936
	c0.441,9.235,0.866,18.124,1.251,26.133c1.336-0.235,2.708-0.365,4.112-0.365c8.37,0,15.684,4.38,19.771,10.933
	c0.56-0.195,1.202-0.428,1.93-0.705c2.91-14.628,15.957-25.675,31.64-25.675c0.358,0,0.713,0.016,1.068,0.026
	c0.061-0.112,0.128-0.219,0.188-0.332C477.239,386.319,461.927,391.195,452.606,395.121z M394.806,423.534
	c-6.022-0.408-5.028,3.471-1.709,8.236c0.919-2.625,2.303-5.036,4.063-7.131c-0.075-0.3-0.149-0.6-0.225-0.901
	C396.256,423.656,395.553,423.585,394.806,423.534z M142.758,168.471c-24.525,0-44.405,19.881-44.405,44.406
	c0,7.642,1.93,14.837,5.332,21.122c1.433-1.589,2.824-3.014,3.784-3.701c5.796-4.14,14.614-4.604,23.076-5.821v-2.285h1.88
	l1.036-3.435c-0.011-0.012-0.023-0.024-0.035-0.038l0.962-3.184c-2.398-2.045-3.937-5.1-3.937-8.202v-0.647l-2.571-1.146
	c-0.646-0.287-1.889-2.616-1.413-3.685c0.483-1.083,1.573-1.701,2.691-1.645c-0.097-0.274-3.12-8.917-0.835-13.695
	c1.294-2.707,4.854-2.745,4.854-2.745s0,0,1.9-1.688c1.899-1.689,7.389-2.322,11.188,0c3.8,2.322,4.434,6.755,7.389,7.6
	c2.955,0.844,4.434,4.433,1.267,6.543c-0.784,0.522-1.554,0.901-2.309,1.146l0.185,2.83l-0.007,0.015
	c1.019,0.049,1.975,0.646,2.419,1.641c0.627,1.408-0.006,3.058-1.413,3.685l-2.437,1.085v0.708c0,2.399-1.138,6.03-3.891,8.382
	l0.963,3.254l0.954,3.222h1.917v2.186c3.047,0.381,7.187,0.985,11.401,1.771c1.392,0.257,2.799,0.53,4.173,0.829
	c6.864,1.465,13,3.336,13.819,5.349c0.248,0.629,0.464,1.523,0.638,2.567c3.709-6.491,5.829-14.01,5.829-22.016
	C187.163,188.352,167.283,168.471,142.758,168.471z M469.461,166.47c1.104,0,2-0.896,2-2v-12.813c0-1.104-0.896-2-2-2
	c-1.104,0-2,0.896-2,2v12.813C467.461,165.575,468.356,166.47,469.461,166.47z M469.461,212.916c1.104,0,2-0.896,2-2v-12.813
	c0-1.104-0.896-2-2-2c-1.104,0-2,0.896-2,2v12.813C467.461,212.02,468.356,212.916,469.461,212.916z M439.832,183.287h12.813
	c1.104,0,2-0.896,2-2s-0.896-2-2-2h-12.813c-1.104,0-2,0.896-2,2S438.728,183.287,439.832,183.287z M499.09,179.287h-12.813
	c-1.104,0-2,0.896-2,2s0.896,2,2,2h12.813c1.104,0,2-0.896,2-2S500.194,179.287,499.09,179.287z M456.156,170.81
	c0.39,0.391,0.901,0.586,1.413,0.586c0.513,0,1.024-0.195,1.414-0.586c0.781-0.781,0.781-2.047,0-2.828l-9.061-9.061
	c-0.781-0.781-2.046-0.781-2.828,0c-0.78,0.781-0.78,2.047,0,2.828L456.156,170.81z M482.765,191.763
	c-0.781-0.781-2.046-0.781-2.828,0c-0.78,0.781-0.78,2.047,0,2.828l9.062,9.061c0.39,0.391,0.901,0.586,1.413,0.586
	s1.024-0.195,1.414-0.586c0.781-0.781,0.781-2.047,0-2.828L482.765,191.763z M456.156,191.763l-9.062,9.061
	c-0.78,0.781-0.78,2.047,0,2.828c0.391,0.391,0.903,0.586,1.414,0.586c0.512,0,1.023-0.195,1.414-0.586l9.061-9.061
	c0.781-0.781,0.781-2.047,0-2.828S456.937,190.982,456.156,191.763z M481.351,171.396c0.512,0,1.023-0.195,1.414-0.586l9.061-9.061
	c0.781-0.781,0.781-2.047,0-2.828s-2.047-0.781-2.827,0l-9.062,9.061c-0.78,0.781-0.78,2.047,0,2.828
	C480.327,171.201,480.84,171.396,481.351,171.396z"></path>
<path id="color_x5F_2" fill="#17140f" d="M154.922,196.226c-0.784,0.522-1.554,0.901-2.309,1.146l0.185,2.83l-0.007,0.015
	l-1.431,3.093l-1.056,2.282v-4.604v-3.29c-1.432-0.064-2.787-0.639-4.038-1.682c-2.533-2.111-2.533-4.645-2.533-4.645
	s-0.423,1.689-3.167,1.9s-4.645-2.533-4.645-2.533s0.634,1.688-2.321,4.644c-1.091,1.091-1.662,2.094-1.951,2.927v2.802v4.48
	l-1.198-2.589l-1.279-2.763l-0.005-0.001c0,0-0.007-0.021-0.009-0.026c-0.097-0.274-3.12-8.917-0.835-13.695
	c1.294-2.707,4.854-2.745,4.854-2.745s0,0,1.9-1.688c1.899-1.689,7.389-2.322,11.188,0c3.8,2.322,4.434,6.755,7.389,7.6
	C156.61,190.526,158.089,194.115,154.922,196.226z M135.115,202.031c-0.044,0.172-0.066,0.36-0.062,0.56
	c0.018,0.752,0.41,1.354,0.867,1.35c0.463-0.006,0.818-0.62,0.802-1.369c-0.004-0.193-0.033-0.375-0.082-0.541H135.115z
	 M145.172,202.031c-0.049,0.166-0.079,0.348-0.082,0.541c-0.017,0.75,0.339,1.363,0.801,1.369c0.458,0.003,0.851-0.598,0.869-1.35
	c0.005-0.2-0.019-0.388-0.062-0.56H145.172z M371.854,181.287c-0.053,0.207-0.08,0.435-0.075,0.676
	c0.021,0.908,0.495,1.635,1.048,1.63c0.56-0.007,0.988-0.748,0.969-1.653c-0.005-0.233-0.041-0.453-0.1-0.653H371.854z
	 M384.868,183.593c0.553,0.005,1.027-0.722,1.049-1.63c0.006-0.242-0.021-0.469-0.074-0.676H384c-0.059,0.2-0.096,0.42-0.1,0.653
	C383.882,182.845,384.31,183.586,384.868,183.593z M142.867,228.915h-3.727l-1.45,5.804l-0.205,0.82h1.072h0.558l-0.017,0.511v0.002
	l-0.638,21.03c1.415,0.142,2.848,0.207,4.297,0.207c0.381,0,0.762-0.008,1.143-0.017l-0.944-20.625v-0.006v-0.002l-0.05-1.101h1.12
	h0.498l-0.102-0.408L142.867,228.915z M106.576,314.235c-3.254,0-5.892,2.638-5.892,5.892s2.638,5.891,5.892,5.891
	c3.253,0,5.891-2.637,5.891-5.891S109.829,314.235,106.576,314.235z M106.576,333.011c-3.254,0-5.892,2.638-5.892,5.892
	s2.638,5.891,5.892,5.891c3.253,0,5.891-2.637,5.891-5.891S109.829,333.011,106.576,333.011z M106.576,351.786
	c-3.254,0-5.892,2.638-5.892,5.891c0,3.255,2.638,5.892,5.892,5.892c3.253,0,5.891-2.637,5.891-5.892
	C112.467,354.424,109.829,351.786,106.576,351.786z M106.576,370.562c-3.254,0-5.892,2.638-5.892,5.891
	c0,3.254,2.638,5.892,5.892,5.892c3.253,0,5.891-2.638,5.891-5.892C112.467,373.199,109.829,370.562,106.576,370.562z
	 M364.671,179.119l0.007,0.001l1.544,3.336l1.447,3.128v-5.411v-3.386c0.35-1.006,1.039-2.217,2.355-3.533
	c3.57-3.57,2.805-5.609,2.805-5.609s2.295,3.314,5.608,3.06c3.315-0.255,3.824-2.295,3.824-2.295s0,3.06,3.06,5.61
	c1.512,1.259,3.148,1.956,4.878,2.034v3.969v5.561l1.275-2.757l1.728-3.734l0.008-0.018l-0.223-3.416
	c0.911-0.295,1.842-0.753,2.788-1.384c3.824-2.549,2.04-6.884-1.53-7.903c-3.568-1.021-4.334-6.375-8.924-9.179
	c-4.588-2.805-11.218-2.04-13.513,0c-2.294,2.04-2.294,2.04-2.294,2.04s-4.302,0.045-5.864,3.315
	c-2.717,5.679,0.787,15.905,1.01,16.541C364.667,179.108,364.671,179.119,364.671,179.119z M418.845,457.273
	c-1.903-0.76-6.166-5.402-6.166-5.402c-0.02-0.167-0.108-1.818-0.251-4.653c-0.299-5.897-0.835-16.939-1.488-30.518
	c-0.385-8.009-0.81-16.897-1.251-26.133c-0.004-0.091-0.009-0.18-0.013-0.271c-0.612-12.82-1.253-26.294-1.855-38.993
	c-1.38-29.072-2.562-54.075-2.739-57.847h-53.046c-0.313,9.048-4.848,140.252-5.531,156.73c-0.042,1.008-0.07,1.589-0.081,1.685
	c0,0-1.763,1.918-3.527,3.49c-0.979,0.873-1.959,1.641-2.638,1.912c-4.038,1.612-15.353,0.241-15.519,4.681
	c-0.107,2.888,5.75,2.748,5.75,2.748h8.846h17.029l-1.277-12.831h1.633c0,0,0.867-4.307,2.178-10.876
	c3.87-19.396,11.614-58.547,12.374-65.019c0.759-6.476,2.167-44.01,7.283-54.102c5.116,10.092,6.524,47.626,7.283,54.102
	c0.217,1.848,1.17,6.364,2.531,12.319c0.629,2.749,1.345,5.802,2.117,9.046c1.963,8.244,4.285,17.699,6.448,26.396
	c0.075,0.302,0.149,0.602,0.225,0.901c1.559,6.266,3.024,12.097,4.196,16.742c1.604,6.352,2.659,10.489,2.659,10.489l-1.277,12.831
	h25.875c0,0,0.1,0.002,0.268,0c1.142-0.015,5.577-0.231,5.482-2.748C434.196,457.515,422.883,458.886,418.845,457.273z
	 M374.717,279.009l4.25,4.447l5.25-4.447l-2.881-55.935l-0.067-1.32h1.348h0.601l-0.123-0.492l-1.877-7.508h-4.5l-1.752,7.01
	l-0.248,0.99h1.295h0.671l-0.021,0.614L374.717,279.009z"></path>
<path id="color_x5F_1" fill="#0c5085" d="M434.362,461.954c-0.166-4.439-11.479-3.068-15.518-4.681
	c-1.903-0.76-6.166-5.402-6.166-5.402c-0.02-0.167-0.108-1.818-0.251-4.653c-0.299-5.897-0.835-16.939-1.488-30.518
	c1.336-0.235,2.708-0.365,4.112-0.365c8.37,0,15.684,4.38,19.771,10.933c0.087,0.14,0.166,0.284,0.25,0.425
	c0.433,0.729,0.838,1.475,1.189,2.251c0.072-0.817,0.184-1.623,0.316-2.422c0.054-0.32,0.11-0.641,0.174-0.959
	c2.91-14.628,15.957-25.675,31.64-25.675c0.358,0,0.713,0.016,1.068,0.026c17.329,0.558,31.207,14.584,31.207,31.815
	c0,3.822-0.719,7.467-1.97,10.86c0.648-0.056,1.302-0.1,1.97-0.1c12.015,0,21.781,9.442,22.146,21.212H428.88
	C430.021,464.688,434.457,464.471,434.362,461.954z M346.423,451.871c0.011-0.096,0.039-0.677,0.081-1.685
	c-1.36,1.604-2.567,3.337-3.608,5.175C344.66,453.789,346.423,451.871,346.423,451.871z M397.159,424.64
	c-1.76,2.095-3.144,4.506-4.063,7.131c-0.82,2.344-1.271,4.857-1.271,7.477c0,1.846,0.244,3.634,0.661,5.351
	c-4.315-3.097-9.387-5.221-14.897-6.038c-1.647-0.246-3.329-0.387-5.048-0.387c-0.566,0-1.127,0.016-1.687,0.042
	c-4.238,0.204-8.269,1.181-11.957,2.78c-1.311,6.569-2.178,10.876-2.178,10.876h-1.633l1.277,12.831h46.373l1.277-12.831
	c0,0-1.056-4.138-2.659-10.489C400.184,436.736,398.718,430.905,397.159,424.64z M120.493,251.312
	c5.374,3.122,11.459,5.149,17.959,5.771h0.009l0.638-21.03v-0.002l0.017-0.511h-0.558h-1.072l0.205-0.82l1.45-5.804h3.727
	l1.554,6.216l0.102,0.408h-0.498h-1.12l0.05,1.101v0.002v0.006l0.944,20.625c6.127-0.148,11.939-1.548,17.206-3.941
	c1.622-0.737,3.195-1.564,4.702-2.483c2.17-1.325,4.215-2.824,6.119-4.488c2.368-2.062,4.513-4.372,6.4-6.89
	c1.085-1.457,2.095-2.988,3.006-4.578c-0.174-1.043-0.39-1.938-0.638-2.567c-0.819-2.012-6.955-3.883-13.819-5.349
	c-1.374-0.298-2.781-0.571-4.173-0.829c-4.215-0.787-8.354-1.391-11.401-1.771v-2.186h-1.917h-2.066l-5.903,4.14l-6.128-4.14h-2.864
	h-1.88v2.285c-8.462,1.218-17.28,1.681-23.076,5.821c-0.96,0.687-2.352,2.111-3.784,3.701c0.174,0.314,0.348,0.63,0.521,0.944
	C108.106,241.724,113.736,247.387,120.493,251.312z M208.622,190.614h79.495v-12.984h-79.495V190.614z M208.622,300.304h79.495
	v-12.985h-79.495V300.304z M97.053,410.434h191.064v-12.984H97.053V410.434z M184.163,287.422H100.01v12.985h84.153V287.422z
	 M415.321,274.051l-7.302-19.149c-1.134,17.175-2.553,38.555-2.553,38.555h-0.386h-53.046h-0.891
	c3.017-0.677-1.759-43.439-2.01-47.994l-24.845,23.06l-0.005-0.005c3.658-3.434,5.189-8.859,3.46-13.994
	c-0.977-2.898-4.666-10.675-9.138-18.614l8.689-8.121c1.817-2.3,8.184-10.235,11.17-12.367c7-5,17.649-5.56,27.871-7.024v-2.763
	h2.268h3.459l7.402,5l7.13-5h2.493h2.317v2.639c3.677,0.458,8.673,1.195,13.763,2.137c1.688,0.311,3.384,0.646,5.048,1.002
	c8.286,1.769,15.7,4.033,16.685,6.463c0.289,0.715,0.53,1.722,0.731,2.887l8.566,39.92c-5.644-4.412-13.739-3.66-18.285,1.786
	c-2.772,3.323-3.578,7.636-2.582,11.577L415.321,274.051z M384.217,279.009l-2.881-55.935l-0.067-1.32h1.348h0.601l-0.123-0.492
	l-1.877-7.508h-4.5l-1.752,7.01l-0.248,0.99h1.295h0.671l-0.021,0.614l-1.944,56.641l4.25,4.447L384.217,279.009z"></path>
</svg>